<svg aria-hidden="true" style="width:0;height:0;position:absolute;overflow:hidden" xmlns="http://www.w3.org/2000/svg"><defs><symbol id="logo-foodsta" viewBox="0 0 70 51" fill="none"><path d="M26.29 10.289c1.614-3.16 6.13-3.16 7.744 0l2.045 4a4.35 4.35 0 0 0 3.19 2.315l4.43.704c3.51.557 4.907 4.859 2.394 7.37L42.93 27.84a4.35 4.35 0 0 0-1.22 3.755l.697 4.418c.554 3.507-3.1 6.164-6.265 4.557l-4.012-2.038a4.349 4.349 0 0 0-3.939 0l-4.011 2.038c-3.166 1.607-6.82-1.05-6.266-4.557l.698-4.418a4.349 4.349 0 0 0-1.22-3.755l-3.162-3.16c-2.513-2.512-1.116-6.814 2.393-7.371l4.43-.704a4.35 4.35 0 0 0 3.19-2.316l2.045-4Z" fill="#FFE553"/><symbol id="btn_burger" viewBox="0 0 24 18"><path d="M.333 2A1.167 1.167 0 0 1 1.5.833h21a1.167 1.167 0 0 1 0 2.334h-21A1.167 1.167 0 0 1 .333 2Zm0 7.037A1.167 1.167 0 0 1 1.5 7.871h21a1.167 1.167 0 0 1 0 2.333h-21A1.167 1.167 0 0 1 .333 9.037ZM1.5 14.908a1.167 1.167 0 0 0 0 2.333h21a1.167 1.167 0 1 0 0-2.333h-21Z"/></symbol><symbol id="icon-close" viewBox="0 0 11 11"><path d="M11 1.108 9.892 0 5.5 4.392 1.108 0 0 1.108 4.392 5.5 0 9.892 1.108 11 5.5 6.608 9.892 11 11 9.892 6.608 5.5 11 1.108Z"/></symbol><symbol id="icon-person" viewBox="0 0 18 18"><path d="M9 9a3 3 0 1 0 0-6 3 3 0 1 0 0 6Zm0 1.5c-2.003 0-6 1.005-6 3v.75c0 .412.337.75.75.75h10.5c.412 0 .75-.338.75-.75v-.75c0-1.995-3.998-3-6-3Z"/></symbol><symbol id="icon-email" viewBox="0 0 18 18"><path d="M15 3H3c-.825 0-1.492.675-1.492 1.5l-.008 9c0 .825.675 1.5 1.5 1.5h12c.825 0 1.5-.675 1.5-1.5v-9c0-.825-.675-1.5-1.5-1.5Zm-.3 3.188L9.398 9.502a.759.759 0 0 1-.796 0L3.3 6.188a.637.637 0 1 1 .675-1.08L9 8.25l5.025-3.143a.637.637 0 1 1 .675 1.08Z"/></symbol><symbol id="icon-phone" viewBox="0 0 22 24"><path d="m15.996 11.123-1.838-.21a1.441 1.441 0 0 0-1.187.412l-1.332 1.332a10.888 10.888 0 0 1-4.769-4.77L8.21 6.55a1.44 1.44 0 0 0 .412-1.187l-.21-1.824a1.448 1.448 0 0 0-1.44-1.28H5.72c-.818 0-1.498.68-1.448 1.498.384 6.18 5.327 11.115 11.5 11.499.817.05 1.498-.63 1.498-1.448v-1.252a1.434 1.434 0 0 0-1.274-1.432Z"/></symbol><path d="m5.54 32.725-.035.008c.004.118-.001.596-.017 1.434-.005.835-.006 1.383-.004 1.645 0 .25-.005.454-.016.612l.002.535a3.609 3.609 0 0 1-.03.472l-.03.33c-.023.207-.068.319-.135.335-.147.035-.376-.078-.688-.338-.315-.272-.496-.509-.544-.712-.049-.203-.061-1.69-.038-4.46.034-2.772-.041-4.596-.224-5.47a.662.662 0 0 1 .022-.434c.057-.264.35-.512.878-.744.54-.235 1.347-.479 2.42-.732 1.083-.256 1.943-.4 2.58-.43.647-.034.995.05 1.043.254.032.135-.041.254-.22.356a9.318 9.318 0 0 1-.476.255c-.141.057-.326.13-.555.22a43.64 43.64 0 0 0-.645.224c-.2.06-.46.145-.78.256-.307.108-.593.211-.856.31-.265.086-.623.212-1.072.378-.45.165-.74.27-.873.313.019.031.037.08.053.148.125.53.194 1.801.206 3.813a17.51 17.51 0 0 0 2.24-.583c.796-.26 1.285-.41 1.466-.453.429-.101.665-.062.707.119.083.35-.338.759-1.264 1.228-.915.466-1.953.836-3.116 1.11Zm11.052-3.11a3.211 3.211 0 0 0-.443-1.04c-.207-.32-.448-.531-.722-.633-.729.398-1.257 1.16-1.586 2.287-.32 1.112-.377 2.103-.172 2.972.206.868.55 1.36 1.029 1.473.775-.35 1.333-1.066 1.672-2.147.349-1.095.423-2.066.222-2.912Zm-4.417 1.204c.187-.974.529-1.817 1.027-2.531.507-.727 1.094-1.17 1.76-1.327.677-.16 1.31-.005 1.898.464.585.457.975 1.098 1.17 1.922.193.812.193 1.694.002 2.645a6.013 6.013 0 0 1-1.141 2.504c-.558.715-1.226 1.165-2.005 1.349-.575.136-1.118-.016-1.628-.456-.509-.44-.86-1.066-1.053-1.879-.195-.823-.205-1.72-.03-2.691Zm12.089-3.015a3.213 3.213 0 0 0-.443-1.04c-.207-.32-.448-.531-.722-.633-.728.398-1.257 1.16-1.586 2.286-.32 1.113-.378 2.103-.172 2.972.206.87.55 1.36 1.029 1.474.775-.35 1.333-1.066 1.672-2.147.349-1.095.423-2.066.222-2.912Zm-4.417 1.203c.187-.973.529-1.817 1.027-2.53.507-.728 1.094-1.17 1.76-1.327.677-.16 1.31-.005 1.898.463.585.458.975 1.099 1.17 1.923.193.812.193 1.694.001 2.645a6.013 6.013 0 0 1-1.14 2.504c-.558.715-1.226 1.165-2.005 1.349-.575.136-1.118-.016-1.628-.456-.509-.44-.86-1.066-1.053-1.879-.195-.824-.205-1.72-.03-2.692Zm12.417-11.136c.18-.042.44.075.78.353.349.263.558.541.628.835.069.293.126 1.161.17 2.605.041 1.432.05 2.925.025 4.48-.031 3.488-.177 5.262-.437 5.323-.158.037-.355-.017-.593-.164-.229-.16-.36-.314-.395-.46-.035-.147-.065-.45-.09-.909-.839 1.39-1.67 2.182-2.494 2.376-.497.118-1.002-.001-1.515-.357-.502-.358-.81-.78-.926-1.265-.166-.7-.176-1.573-.031-2.62a8.938 8.938 0 0 1 1.016-3.029c.524-.958 1.187-1.531 1.988-1.72.802-.19 1.474.158 2.018 1.043.008-2.528-.124-4.493-.396-5.895-.08-.338.003-.537.252-.595Zm.107 8.752c-.144-.61-.373-1.098-.687-1.465-.302-.37-.6-.52-.893-.45-.485.114-.911.53-1.277 1.249a7.426 7.426 0 0 0-.73 2.353c-.111.836-.1 1.537.034 2.101.048.203.16.35.336.439a.81.81 0 0 0 .569.062c.44-.104.958-.56 1.553-1.367.607-.81.977-1.685 1.113-2.623l.002-.215-.02-.084Zm10.81-1.015c.219.926-.014 1.803-.7 2.632-.688.818-1.574 1.355-2.657 1.61-1.073.254-2.024.186-2.855-.201-.834-.4-1.31-.847-1.427-1.344-.08-.338-.019-.532.184-.58.18-.042.6.145 1.26.561.248.144.562.26.94.35.39.087.777.085 1.161-.006.79-.186 1.442-.555 1.955-1.105.525-.553.73-1.066.619-1.54-.073-.305-.368-.646-.887-1.024a12.011 12.011 0 0 0-1.671-1.018 13.123 13.123 0 0 1-1.663-1.055c-.521-.39-.815-.725-.882-1.007a2.745 2.745 0 0 1-.044-.938c.038-.342.108-.603.208-.782.326-.589.903-1.196 1.732-1.82.84-.628 1.577-1.016 2.21-1.165.326-.078.628-.036.905.125.277.162.443.36.5.598.026.112-.071.23-.292.354-.221.124-.561.3-1.02.527-.45.213-.843.438-1.181.672-1.18.803-1.716 1.436-1.606 1.899.059.248.883.786 2.474 1.614.612.32 1.191.726 1.737 1.217.554.477.887.952 1 1.426Zm3.889.852c.05.214.2.292.448.233.43-.1.92-.342 1.474-.723.562-.395.877-.6.944-.616.203-.048.33.035.381.25.078.327-.171.785-.747 1.374-.564.586-1.123.944-1.676 1.074-.542.128-1.028.088-1.459-.12-.433-.22-.687-.487-.762-.803-.075-.316-.102-.733-.082-1.25.018-.528.056-1.223.114-2.082.068-.874.111-1.594.133-2.159-.502.25-.842.396-1.023.438-.18.043-.383-.005-.606-.143-.215-.151-.342-.312-.382-.481-.065-.271.608-.704 2.016-1.299-.019-.984-.114-1.838-.285-2.56-.08-.338-.007-.534.218-.588.192-.045.459.023.8.205.338.17.543.408.616.712.072.305.103.864.093 1.677.63-.209 1.137-.358 1.52-.449.678-.16 1.051-.093 1.12.2.04.17-.112.355-.458.555-.334.199-1.06.555-2.178 1.069-.026.947-.083 2.04-.171 3.276-.091 1.225-.107 1.961-.048 2.21Zm7.566-8.865c.508-.12 1.038.03 1.59.447.549.406.873.819.972 1.236.096.406.054.857-.126 1.353.175.137.278.268.307.392.075.316.13.875.165 1.677.047.8.081 1.321.104 1.566.033.243.056.44.068.592.01.14.014.283.012.426.021.293-.047.458-.205.495-.203.048-.414-.087-.632-.404-.21-.332-.393-.778-.55-1.337-.701 1.513-1.482 2.37-2.34 2.573-.519.122-1.084.023-1.697-.297-.603-.334-.961-.738-1.074-1.212-.16-.677-.11-1.57.152-2.681.258-1.122.69-2.165 1.296-3.13.605-.966 1.258-1.53 1.958-1.696Zm1.485 2.795c-.249-1.05-.582-1.524-1-1.426-.44.104-.879.541-1.316 1.312-.44.759-.77 1.582-.988 2.467-.22.886-.274 1.56-.164 2.023a.594.594 0 0 0 .349.418.962.962 0 0 0 .599.038c.53-.126 1.044-.622 1.542-1.49.495-.88.75-1.864.766-2.952-.006-.177.066-.302.216-.373l-.004-.017Z" fill="#2C2C2C"/><path fill-rule="evenodd" clip-rule="evenodd" d="M52.845 31.832c-.484.12-.866.487-1.026.96-3.045 9.004-11.576 15.49-21.629 15.49a22.766 22.766 0 0 1-15.726-6.271 1.46 1.46 0 0 0-1.35-.37c-1.022.252-1.408 1.489-.65 2.218A25.479 25.479 0 0 0 30.19 51c11.31 0 20.904-7.34 24.263-17.509.33-.998-.588-1.91-1.608-1.659Zm-46.172-9.28a1.446 1.446 0 0 0 1.063-1.155C9.67 10.776 18.985 2.718 30.19 2.718c7.285 0 13.771 3.407 17.95 8.709.35.445.924.66 1.474.523.933-.23 1.355-1.314.765-2.072C45.706 3.868 38.4 0 30.19 0 17.595 0 7.129 9.102 5.031 21.076c-.165.945.711 1.705 1.642 1.476Z" fill="#BBF330"/><path d="M68.596 8.497c-6.036 11.54-8.686 3.929-17.183 8.4.85-13.396 9.849-5.245 17.183-8.4Z" fill="#BBF330" stroke="#BBF330" stroke-linejoin="round"/></symbol><symbol id="icon-deliv" viewBox="0 0 32 32"><path fill="#fff" style="fill:var(--color1,#fff)" d="M32 16c0 8.837-7.163 16-16 16S0 24.837 0 16 7.163 0 16 0s16 7.163 16 16z"/><path fill="#7eb101" style="fill:var(--color2,#7eb101)" d="m9.489 14.422 2.356 1c.267-.533.552-1.059.856-1.578s.626-1.015.967-1.489l-1.756-.356-2.422 2.422zm3.422 1.8 2.956 2.956c.844-.385 1.637-.822 2.378-1.311s1.341-.963 1.8-1.422c1.2-1.2 2.081-2.43 2.644-3.689s.867-2.682.911-4.267c-1.585.044-3.007.348-4.267.911s-2.489 1.444-3.689 2.644c-.459.459-.933 1.059-1.422 1.8s-.926 1.533-1.311 2.378zM18 14.089c-.296-.296-.444-.663-.444-1.1s.148-.804.444-1.1c.296-.296.663-.444 1.1-.444s.804.148 1.1.444c.296.296.444.663.444 1.1s-.148.804-.444 1.1c-.296.296-.663.444-1.1.444s-.804-.148-1.1-.444zm-.333 8.511 2.422-2.422-.356-1.756c-.474.341-.97.663-1.489.967s-1.044.589-1.578.856l1 2.356zm7.244-15.422c.133 2.015-.119 3.852-.756 5.511s-1.689 3.222-3.156 4.689l-.089.089.489 2.444c.044.222.033.437-.033.644s-.181.393-.344.556l-3.8 3.822-1.889-4.4-3.778-3.778-4.4-1.889 3.822-3.8c.163-.163.348-.278.556-.344s.422-.078.644-.033l2.444.489c.015-.015.03-.026.044-.033s.03-.019.044-.033c1.467-1.467 3.03-2.522 4.689-3.167s3.496-.9 5.511-.767zM8.644 19.444c.518-.519 1.152-.781 1.9-.789s1.381.248 1.9.767c.518.518.774 1.152.767 1.9s-.27 1.381-.789 1.9c-.385.385-.981.704-1.789.956s-2.019.489-3.633.711c.222-1.615.456-2.83.7-3.644s.559-1.415.944-1.8zm.934.956c-.207.222-.393.57-.556 1.044s-.304 1.081-.422 1.822c.741-.118 1.348-.259 1.822-.422s.822-.348 1.044-.556c.281-.252.426-.567.433-.944s-.122-.707-.389-.989c-.282-.267-.611-.396-.989-.389s-.693.152-.944.433z"/></symbol><symbol id="icon-left" viewBox="0 0 18 32"><path d="m.48 16.965 14.861 14.16a1.334 1.334 0 0 0 1.84 0l.016-.016a1.237 1.237 0 0 0 .382-.889 1.22 1.22 0 0 0-.382-.889L3.202 15.998 17.197 2.67a1.222 1.222 0 0 0 .282-1.373 1.231 1.231 0 0 0-.282-.405l-.016-.016a1.336 1.336 0 0 0-1.84 0L.48 15.036a1.331 1.331 0 0 0 0 1.93z"/></symbol><symbol id="icon-logo" viewBox="0 0 44 32"><path fill="#ffe553" style="fill:var(--color3,#ffe553)" d="M16.495 6.456c1.013-1.982 3.846-1.982 4.86 0l1.283 2.51a2.731 2.731 0 0 0 2.002 1.453l2.78.441c2.202.35 3.078 3.049 1.501 4.625l-1.984 1.983a2.728 2.728 0 0 0-.766 2.356l.438 2.773c.348 2.2-1.945 3.868-3.931 2.859l-2.517-1.278a2.73 2.73 0 0 0-2.471 0l-2.517 1.278c-1.986 1.009-4.279-.659-3.931-2.859l.438-2.773a2.732 2.732 0 0 0-.766-2.356l-1.983-1.983c-1.577-1.576-.701-4.275 1.501-4.625l2.78-.441a2.731 2.731 0 0 0 2.002-1.453l1.283-2.51z"/><path fill="#2c2c2c" style="fill:var(--color4,#2c2c2c)" d="m3.476 20.533-.021.005a31 31 0 0 1-.011.9c-.003.524-.004.868-.002 1.032 0 .157-.003.285-.01.384l.001.336c-.001.12-.008.219-.02.296l-.018.206c-.014.13-.042.201-.085.211-.092.022-.236-.049-.432-.212-.197-.17-.311-.319-.341-.447s-.038-1.06-.024-2.798c.021-1.74-.025-2.884-.14-3.432a.415.415 0 0 1 .014-.273c.036-.165.219-.321.551-.467.339-.147.845-.3 1.518-.459.68-.161 1.219-.25 1.619-.27.406-.021.625.032.655.159.02.085-.026.159-.138.223s-.212.117-.299.16a28.49 28.49 0 0 1-.349.138c-.145.049-.28.096-.404.14a11.76 11.76 0 0 0-.489.16c-.193.068-.372.133-.537.194-.167.054-.391.133-.673.237s-.465.169-.548.197c.012.02.023.051.033.093.079.333.122 1.13.129 2.392.444-.082.913-.204 1.405-.365.5-.163.806-.258.92-.284.269-.064.417-.039.444.075.052.219-.212.476-.793.77a8.668 8.668 0 0 1-1.955.697zm6.935-1.951a2.015 2.015 0 0 0-.278-.652c-.13-.201-.281-.334-.453-.398-.457.25-.788.728-.995 1.435-.201.698-.237 1.32-.108 1.865s.344.853.645.924c.486-.219.836-.668 1.049-1.347.219-.687.265-1.296.139-1.827zm-2.772.755c.117-.611.332-1.14.645-1.588.318-.456.686-.734 1.104-.833.425-.1.822-.003 1.191.291.367.287.612.689.735 1.206.121.51.121 1.063.001 1.66a3.774 3.774 0 0 1-.716 1.571c-.35.449-.769.731-1.258.846-.361.085-.702-.01-1.021-.286s-.54-.669-.661-1.179c-.122-.517-.129-1.08-.019-1.689zm7.585-1.892a2.015 2.015 0 0 0-.278-.652c-.13-.201-.281-.334-.453-.398-.457.25-.788.728-.995 1.435-.201.698-.237 1.32-.108 1.865s.344.853.645.924c.486-.22.836-.669 1.049-1.347.219-.687.265-1.296.139-1.827zm-2.771.756c.117-.611.332-1.14.645-1.588.318-.456.686-.734 1.104-.833.425-.1.822-.003 1.191.291.367.287.612.689.735 1.206.121.51.121 1.063.001 1.66a3.774 3.774 0 0 1-.716 1.571c-.35.449-.769.731-1.258.846-.361.085-.702-.01-1.021-.286s-.54-.669-.661-1.179c-.122-.517-.129-1.08-.019-1.689zm7.791-6.988c.113-.027.277.047.49.221.219.165.35.34.393.524s.079.729.107 1.635c.026.899.031 1.836.016 2.811-.02 2.188-.111 3.301-.274 3.34-.099.023-.223-.011-.372-.103-.143-.101-.226-.197-.248-.289s-.041-.282-.057-.57c-.526.872-1.048 1.369-1.565 1.491-.312.074-.628-.001-.951-.224-.315-.225-.509-.489-.581-.794-.104-.439-.111-.987-.02-1.644.096-.666.309-1.299.638-1.9s.745-.961 1.247-1.08.925.1 1.266.655c.005-1.586-.077-2.819-.248-3.699-.05-.212.002-.337.158-.374zm.067 5.491c-.091-.382-.234-.689-.431-.919-.19-.232-.376-.326-.561-.283-.305.072-.572.333-.801.784s-.382.943-.458 1.476c-.07.525-.063.965.021 1.319.03.127.101.219.211.275s.23.069.357.039c.276-.065.601-.351.974-.858a3.565 3.565 0 0 0 .698-1.645l.002-.135-.013-.053zm6.783-.636c.138.581-.009 1.131-.439 1.651-.432.513-.988.85-1.668 1.011-.673.159-1.27.117-1.791-.127-.523-.25-.821-.531-.895-.843-.05-.212-.012-.334.116-.364.113-.027.377.091.79.352.156.09.353.163.59.219.245.054.488.053.728-.004a2.382 2.382 0 0 0 1.227-.693c.329-.347.458-.669.388-.966-.045-.191-.231-.405-.556-.643s-.675-.45-1.049-.639c-.368-.197-.716-.418-1.043-.662s-.512-.455-.554-.632c-.042-.177-.051-.373-.027-.588s.067-.379.131-.491c.204-.37.566-.751 1.087-1.143.527-.394.989-.637 1.386-.731.205-.048.395-.022.568.079s.278.226.313.375c.017.071-.044.145-.183.223s-.352.188-.64.33a5.273 5.273 0 0 0-.741.422c-.741.504-1.077.901-1.008 1.191.037.156.554.493 1.553 1.013.384.201.747.455 1.09.763.348.299.557.598.627.895zm2.44.534c.032.135.126.183.282.147.269-.064.577-.215.924-.454.353-.248.55-.377.593-.387.127-.03.207.022.239.157.049.205-.108.493-.469.862-.354.368-.705.593-1.052.674-.34.08-.645.055-.915-.075-.272-.138-.431-.306-.478-.504s-.064-.46-.051-.784c.011-.332.035-.767.072-1.307.042-.548.07-1 .083-1.354-.314.156-.528.248-.642.275s-.24-.003-.38-.09c-.135-.095-.215-.196-.24-.302-.04-.17.381-.441 1.265-.815a7.64 7.64 0 0 0-.179-1.606c-.05-.212-.005-.335.137-.369.12-.028.288.014.502.128.212.107.341.256.386.447s.065.542.059 1.052c.395-.131.713-.224.954-.281.425-.1.659-.058.703.126.025.106-.071.222-.288.348-.21.124-.665.348-1.367.67-.016.595-.052 1.28-.107 2.055-.057.769-.067 1.231-.03 1.387zm4.747-5.562c.319-.075.651.018.998.28.345.255.548.514.61.776.06.255.034.538-.079.849.11.086.174.168.193.246.047.198.081.549.104 1.052.029.502.051.829.065.983a3.387 3.387 0 0 1 .05.638c.014.184-.029.287-.128.311-.127.03-.26-.055-.397-.254-.132-.208-.246-.488-.345-.838-.441.949-.93 1.487-1.468 1.614-.326.077-.681.015-1.065-.186-.379-.21-.603-.463-.674-.761-.101-.425-.069-.986.095-1.682.162-.704.433-1.358.813-1.964s.79-.96 1.229-1.064zm.932 1.754c-.156-.659-.365-.957-.627-.895-.276.065-.551.339-.826.823-.276.476-.483.993-.62 1.548s-.172.979-.103 1.269c.029.12.102.208.219.262a.606.606 0 0 0 .376.023c.333-.079.655-.39.967-.935.31-.552.471-1.169.481-1.852-.004-.111.041-.189.135-.234l-.002-.011z"/><path fill="#bbf330" style="fill:var(--color5,#bbf330)" d="M33.157 19.973a.916.916 0 0 0-.643.602c-1.911 5.65-7.264 9.719-13.571 9.719a14.284 14.284 0 0 1-9.867-3.935.915.915 0 0 0-.848-.232c-.641.158-.883.934-.408 1.392a15.988 15.988 0 0 0 11.122 4.48c7.097 0 13.116-4.605 15.224-10.986.207-.626-.369-1.199-1.009-1.041zM4.187 14.15a.907.907 0 0 0 .667-.725c1.214-6.664 7.058-11.72 14.089-11.72 4.571 0 8.641 2.137 11.262 5.464.22.279.58.414.925.328.585-.144.85-.825.48-1.301A16.009 16.009 0 0 0 18.943-.002c-7.903 0-14.47 5.711-15.786 13.224-.104.592.446 1.07 1.03.926z"/><path fill="#bbf330" style="fill:var(--color5,#bbf330);stroke:var(--color5,#bbf330)" stroke="#bbf330" stroke-linejoin="round" stroke-width=".627" d="M43.041 5.332c-3.787 7.241-5.45 2.465-10.782 5.271.533-8.406 6.18-3.291 10.782-5.271z"/></symbol><symbol id="icon-order" viewBox="0 0 32 32"><path fill="#fff" style="fill:var(--color1,#fff)" d="M32 16c0 8.837-7.163 16-16 16S0 24.837 0 16 7.163 0 16 0s16 7.163 16 16z"/><path fill="#7eb101" style="fill:var(--color2,#7eb101)" d="M15.667 6.222c1.348 0 2.5.47 3.456 1.411s1.433 2.085 1.433 3.433c0 .77-.167 1.496-.5 2.178s-.804 1.259-1.411 1.733h-.756v-1.111c.43-.341.759-.756.989-1.244s.344-1.007.344-1.556c0-.978-.348-1.807-1.044-2.489s-1.533-1.022-2.511-1.022c-.978 0-1.815.341-2.511 1.022s-1.044 1.511-1.044 2.489c0 .548.115 1.067.344 1.556s.559.904.989 1.244v1.6c-.83-.43-1.481-1.037-1.956-1.822s-.711-1.644-.711-2.578c0-1.348.478-2.493 1.433-3.433s2.107-1.411 3.456-1.411zm-.845 18.667c-.252 0-.489-.048-.711-.144s-.415-.226-.578-.389l-4.578-4.578 1.244-1.289c.207-.207.441-.367.7-.478s.53-.13.811-.056l1.733.4v-7.244c0-.622.215-1.148.644-1.578s.956-.644 1.578-.644c.622 0 1.148.215 1.578.644s.644.956.644 1.578v3.822h.578c.074 0 .141.015.2.044s.126.059.2.089l3.289 1.6c.356.163.619.426.789.789s.219.737.144 1.122l-.8 4.844c-.074.43-.281.781-.622 1.056s-.726.411-1.156.411H14.82zm-.177-1.333h6.244l.956-5.533-4.067-2.022h-1.222v-4.889c0-.267-.081-.481-.244-.644s-.378-.244-.644-.244-.482.081-.644.244c-.163.163-.244.378-.244.644v8.867l-3.422-.733-.511.511 3.8 3.8zm6.244 0z"/></symbol><symbol id="icon-right" viewBox="0 0 18 32"><path d="M17.653 15.035 2.792.875a1.334 1.334 0 0 0-1.84 0L.936.891a1.222 1.222 0 0 0-.282 1.373c.065.153.162.291.282.405l13.995 13.333L.936 29.33a1.212 1.212 0 0 0-.381.889 1.236 1.236 0 0 0 .381.889l.016.016a1.334 1.334 0 0 0 1.84 0l14.861-14.16a1.331 1.331 0 0 0 0-1.93z"/></symbol></defs><symbol id="icon-black-star" viewBox="0 0 36 32"><path d="M15.639 1.037c.593-1.383 2.611-1.383 3.204 0l3.498 8.164c.25.583.815.982 1.463 1.032l9.079.707c1.538.12 2.162 1.983.99 2.958l-6.917 5.752a1.656 1.656 0 0 0-.559 1.67l2.113 8.6c.358 1.457-1.275 2.609-2.592 1.828l-7.773-4.609a1.781 1.781 0 0 0-1.809 0l-7.773 4.609c-1.317.781-2.95-.371-2.592-1.828l2.113-8.6a1.656 1.656 0 0 0-.559-1.67L.607 13.898c-1.172-.975-.548-2.838.99-2.958l9.079-.707a1.73 1.73 0 0 0 1.463-1.032l3.498-8.164z"/></symbol></svg>